<?xml version="1.0" encoding="UTF-8"?>
<svg xmlns="http://www.w3.org/2000/svg" xmlns:xlink="http://www.w3.org/1999/xlink" width="50px" height="50px" viewBox="0 0 50 50" version="1.1">
<g id="surface1">
<path style=" stroke:none;fill-rule:nonzero;fill:rgb(0%,0%,0%);fill-opacity:1;" d="M 47.882812 4.71875 L 2.128906 4.71875 C 0.957031 4.71875 0 5.675781 0 6.847656 L 0 43.152344 C 0 44.324219 0.957031 45.28125 2.128906 45.28125 L 47.769531 45.28125 C 48.941406 45.28125 49.898438 44.324219 50 43.265625 L 50 6.835938 C 50 5.675781 49.042969 4.71875 47.882812 4.71875 Z M 24.953125 28.390625 L 6.863281 8.851562 L 43.046875 8.851562 Z M 45.753906 12.152344 L 45.753906 37.300781 L 34.933594 23.820312 Z M 15.292969 24.144531 L 4.144531 37.511719 L 4.144531 12.152344 Z M 18.164062 27.21875 L 23.46875 32.851562 C 24.3125 33.695312 25.800781 33.695312 26.542969 32.851562 L 32.0625 26.902344 L 43.453125 41.128906 L 6.558594 41.128906 Z M 18.164062 27.21875 "/>
</g>
</svg>
